<mxfile host="app.diagrams.net" modified="2024-04-10T16:52:22.122Z" agent="Mozilla/5.0 (Macintosh; Intel Mac OS X 10_15_7) AppleWebKit/537.36 (KHTML, like Gecko) Chrome/123.0.0.0 Safari/537.36" etag="uJeI_iK71bTCL4NoCGw1" version="24.2.3" type="github">
  <diagram name="Page-1" id="74e2e168-ea6b-b213-b513-2b3c1d86103e">
    <mxGraphModel dx="954" dy="1589" grid="0" gridSize="10" guides="1" tooltips="1" connect="1" arrows="1" fold="1" page="1" pageScale="1" pageWidth="1100" pageHeight="850" background="none" math="0" shadow="0">
      <root>
        <mxCell id="0" />
        <mxCell id="1" parent="0" />
        <mxCell id="77e6c97f196da883-1" value="排名" style="swimlane;html=1;childLayout=stackLayout;startSize=20;rounded=0;shadow=0;labelBackgroundColor=none;strokeWidth=1;fontFamily=Verdana;fontSize=8;align=center;" parent="1" vertex="1">
          <mxGeometry x="73" y="-86" width="1006" height="2298" as="geometry" />
        </mxCell>
        <mxCell id="77e6c97f196da883-2" value="活动" style="swimlane;html=1;startSize=20;" parent="77e6c97f196da883-1" vertex="1">
          <mxGeometry y="20" width="519" height="2278" as="geometry" />
        </mxCell>
        <mxCell id="7HxZAh4jDL76YrdutOJW-3" value="" style="edgeStyle=none;curved=1;rounded=0;orthogonalLoop=1;jettySize=auto;html=1;fontSize=12;startSize=8;endSize=8;" parent="77e6c97f196da883-2" source="7HxZAh4jDL76YrdutOJW-1" target="7HxZAh4jDL76YrdutOJW-2" edge="1">
          <mxGeometry relative="1" as="geometry" />
        </mxCell>
        <mxCell id="7HxZAh4jDL76YrdutOJW-1" value="开始" style="rounded=1;whiteSpace=wrap;html=1;" parent="77e6c97f196da883-2" vertex="1">
          <mxGeometry x="159" y="71" width="120" height="60" as="geometry" />
        </mxCell>
        <mxCell id="7HxZAh4jDL76YrdutOJW-5" value="" style="edgeStyle=none;curved=1;rounded=0;orthogonalLoop=1;jettySize=auto;html=1;fontSize=12;startSize=8;endSize=8;" parent="77e6c97f196da883-2" source="7HxZAh4jDL76YrdutOJW-2" target="7HxZAh4jDL76YrdutOJW-4" edge="1">
          <mxGeometry relative="1" as="geometry" />
        </mxCell>
        <mxCell id="7HxZAh4jDL76YrdutOJW-2" value="查询当前进行活动" style="whiteSpace=wrap;html=1;rounded=1;" parent="77e6c97f196da883-2" vertex="1">
          <mxGeometry x="159" y="251" width="120" height="60" as="geometry" />
        </mxCell>
        <mxCell id="7HxZAh4jDL76YrdutOJW-21" value="" style="edgeStyle=none;curved=1;rounded=0;orthogonalLoop=1;jettySize=auto;html=1;fontSize=12;startSize=8;endSize=8;" parent="77e6c97f196da883-2" source="7HxZAh4jDL76YrdutOJW-4" target="7HxZAh4jDL76YrdutOJW-20" edge="1">
          <mxGeometry relative="1" as="geometry" />
        </mxCell>
        <mxCell id="7HxZAh4jDL76YrdutOJW-4" value="查询活动参赛记录&lt;div&gt;未删除&lt;/div&gt;&lt;div&gt;报名成功&lt;/div&gt;&lt;div&gt;排名不是淘汰&lt;/div&gt;" style="whiteSpace=wrap;html=1;rounded=1;" parent="77e6c97f196da883-2" vertex="1">
          <mxGeometry x="159" y="431" width="120" height="60" as="geometry" />
        </mxCell>
        <mxCell id="-8UbISWvMrG1KtDeCzep-2" value="" style="edgeStyle=none;curved=1;rounded=0;orthogonalLoop=1;jettySize=auto;html=1;fontSize=12;startSize=8;endSize=8;" parent="77e6c97f196da883-2" source="7HxZAh4jDL76YrdutOJW-6" target="-8UbISWvMrG1KtDeCzep-1" edge="1">
          <mxGeometry relative="1" as="geometry" />
        </mxCell>
        <mxCell id="7HxZAh4jDL76YrdutOJW-6" value="查询收益额" style="whiteSpace=wrap;html=1;rounded=1;" parent="77e6c97f196da883-2" vertex="1">
          <mxGeometry x="159" y="1001" width="120" height="60" as="geometry" />
        </mxCell>
        <mxCell id="vle5PGzjgUlQQIBd6tfS-2" style="edgeStyle=none;curved=1;rounded=0;orthogonalLoop=1;jettySize=auto;html=1;entryX=0.5;entryY=0;entryDx=0;entryDy=0;fontSize=12;startSize=8;endSize=8;" edge="1" parent="77e6c97f196da883-2" source="7HxZAh4jDL76YrdutOJW-16" target="k4k_4l29LGYgbQjIqBSm-1">
          <mxGeometry relative="1" as="geometry" />
        </mxCell>
        <mxCell id="7HxZAh4jDL76YrdutOJW-16" value="更新用户排名&lt;div&gt;表：futures_trade_compete_record&lt;/div&gt;&lt;div&gt;futures_trade_compete_mock&lt;br&gt;&lt;/div&gt;&lt;div&gt;&lt;br&gt;&lt;/div&gt;" style="whiteSpace=wrap;html=1;rounded=1;" parent="77e6c97f196da883-2" vertex="1">
          <mxGeometry x="159" y="1565" width="120" height="60" as="geometry" />
        </mxCell>
        <mxCell id="7HxZAh4jDL76YrdutOJW-24" value="" style="edgeStyle=none;curved=1;rounded=0;orthogonalLoop=1;jettySize=auto;html=1;fontSize=12;startSize=8;endSize=8;" parent="77e6c97f196da883-2" source="7HxZAh4jDL76YrdutOJW-20" target="7HxZAh4jDL76YrdutOJW-23" edge="1">
          <mxGeometry relative="1" as="geometry" />
        </mxCell>
        <mxCell id="7HxZAh4jDL76YrdutOJW-20" value="查询标记淘汰的记录&lt;div&gt;更新排名淘汰&lt;/div&gt;&lt;div&gt;排行榜zset剔除&lt;/div&gt;" style="whiteSpace=wrap;html=1;rounded=1;" parent="77e6c97f196da883-2" vertex="1">
          <mxGeometry x="159" y="611" width="120" height="60" as="geometry" />
        </mxCell>
        <mxCell id="7HxZAh4jDL76YrdutOJW-27" style="edgeStyle=none;curved=1;rounded=0;orthogonalLoop=1;jettySize=auto;html=1;fontSize=12;startSize=8;endSize=8;" parent="77e6c97f196da883-2" source="7HxZAh4jDL76YrdutOJW-23" target="7HxZAh4jDL76YrdutOJW-6" edge="1">
          <mxGeometry relative="1" as="geometry" />
        </mxCell>
        <mxCell id="7HxZAh4jDL76YrdutOJW-23" value="查询未被标记的记录" style="whiteSpace=wrap;html=1;rounded=1;" parent="77e6c97f196da883-2" vertex="1">
          <mxGeometry x="159" y="791" width="120" height="60" as="geometry" />
        </mxCell>
        <mxCell id="-8UbISWvMrG1KtDeCzep-4" value="" style="edgeStyle=none;curved=1;rounded=0;orthogonalLoop=1;jettySize=auto;html=1;fontSize=12;startSize=8;endSize=8;" parent="77e6c97f196da883-2" source="-8UbISWvMrG1KtDeCzep-1" target="-8UbISWvMrG1KtDeCzep-3" edge="1">
          <mxGeometry relative="1" as="geometry" />
        </mxCell>
        <mxCell id="-8UbISWvMrG1KtDeCzep-1" value="真实用户排名&lt;div&gt;zset add&lt;/div&gt;" style="whiteSpace=wrap;html=1;rounded=1;" parent="77e6c97f196da883-2" vertex="1">
          <mxGeometry x="159" y="1181" width="120" height="60" as="geometry" />
        </mxCell>
        <mxCell id="-8UbISWvMrG1KtDeCzep-5" style="edgeStyle=none;curved=1;rounded=0;orthogonalLoop=1;jettySize=auto;html=1;entryX=0.5;entryY=0;entryDx=0;entryDy=0;fontSize=12;startSize=8;endSize=8;" parent="77e6c97f196da883-2" source="-8UbISWvMrG1KtDeCzep-3" edge="1">
          <mxGeometry relative="1" as="geometry">
            <mxPoint x="221" y="1561" as="targetPoint" />
          </mxGeometry>
        </mxCell>
        <mxCell id="-8UbISWvMrG1KtDeCzep-3" value="假数据排名&lt;div&gt;先删除zset rem&lt;/div&gt;&lt;div&gt;再添加zset add&lt;/div&gt;" style="whiteSpace=wrap;html=1;rounded=1;" parent="77e6c97f196da883-2" vertex="1">
          <mxGeometry x="159" y="1361" width="120" height="60" as="geometry" />
        </mxCell>
        <mxCell id="k4k_4l29LGYgbQjIqBSm-1" value="结束" style="whiteSpace=wrap;html=1;rounded=1;" parent="77e6c97f196da883-2" vertex="1">
          <mxGeometry x="159" y="1726" width="120" height="60" as="geometry" />
        </mxCell>
        <mxCell id="77e6c97f196da883-3" value="合约" style="swimlane;html=1;startSize=20;" parent="77e6c97f196da883-1" vertex="1">
          <mxGeometry x="519" y="20" width="487" height="2278" as="geometry" />
        </mxCell>
        <mxCell id="7HxZAh4jDL76YrdutOJW-8" value="合约sdk" style="whiteSpace=wrap;html=1;rounded=1;" parent="77e6c97f196da883-3" vertex="1">
          <mxGeometry x="100" y="1001" width="120" height="60" as="geometry" />
        </mxCell>
        <mxCell id="7HxZAh4jDL76YrdutOJW-9" value="" style="edgeStyle=none;curved=1;rounded=0;orthogonalLoop=1;jettySize=auto;html=1;fontSize=12;startSize=8;endSize=8;" parent="77e6c97f196da883-1" source="7HxZAh4jDL76YrdutOJW-6" target="7HxZAh4jDL76YrdutOJW-8" edge="1">
          <mxGeometry relative="1" as="geometry" />
        </mxCell>
      </root>
    </mxGraphModel>
  </diagram>
</mxfile>
